# xmcd
#
# Track frame offsets:
#	150
#	18285
#	40354
#	62318
#	86810
#	108854
#	129508
#	155577
#	179230
#	202338
#	230254
#	251120
#	273599
#
# Disc length: 3925 seconds
#
# Revision: 1
# Processed by: cddbd v1.5.2PL0 Copyright (c) Steve Scherf et al.
# Submitted via: EZCDAudioConverter 8.0.2.1
#
DISCID=ba0f530d
DTITLE=Various Artist - st. Trương Lê Sơn. Vol 02. Âm
DYEAR=2010
DGENRE=World Pop
TTITLE0=Hoàng Lê Vi - Tầm gửi
TTITLE1=Thu Minh - Đừng tìm em nữa
TTITLE2=Hồng Ngọc - Đi tìm nỗi đau
TTITLE3=Lan Phương - Tình cuối vỡ tan
TTITLE4=Lệ Quyên - Thêm một lần yêu thương
TTITLE5=Mi Trần - Cần có anh
TTITLE6=Hồng Ngọc - Quá khứ
TTITLE7=Lê Như - Tim lạnh
TTITLE8=Phạm Thanh Thảo - Em cần anh thôi
TTITLE9=Thúy Khanh - Làm sao quên được anh
TTITLE10=Lệ Quyên - Yêu thương lỡ làng
TTITLE11=Hồ Kim - Yêu thương lựa chọn
TTITLE12=Hoàng Lê Vi - Tình yêu cuối cùng
EXTD=
EXTT0=
EXTT1=
EXTT2=
EXTT3=
EXTT4=
EXTT5=
EXTT6=
EXTT7=
EXTT8=
EXTT9=
EXTT10=
EXTT11=
EXTT12=
PLAYORDER=
